<?xml version="1.0" encoding="iso-8859-1"?>
<!-- Generator: Adobe Illustrator 19.0.0, SVG Export Plug-In . SVG Version: 6.00 Build 0)  -->
<svg xmlns="http://www.w3.org/2000/svg" xmlns:xlink="http://www.w3.org/1999/xlink" version="1.1" id="Layer_1" x="0px" y="0px" viewBox="0 0 512 512" style="enable-background:new 0 0 512 512;" xml:space="preserve" width="512px" height="512px">
<g>
	<g>
		<path d="M501.828,143.509c0.331,0,0.66,0.012,0.988,0.026c2.393,0.108,4.732-0.765,6.467-2.422    c1.734-1.657,2.716-3.951,2.716-6.349v-31.034c0-4.849-3.932-8.781-8.781-8.781H8.781C3.932,94.948,0,98.879,0,103.729v31    c0,4.849,3.932,8.781,8.781,8.781c11.516,0,20.886,9.369,20.886,20.886s-9.37,20.885-20.886,20.885    c-4.849,0-8.781,3.931-8.781,8.781v32.272c0,4.849,3.932,8.781,8.781,8.781c11.516,0,20.886,9.369,20.886,20.886    c0,11.517-9.37,20.886-20.886,20.886c-4.849,0-8.781,3.932-8.781,8.781v32.272c0,4.849,3.932,8.781,8.781,8.781    c11.516,0,20.886,9.369,20.886,20.886c0,11.517-9.37,20.887-20.886,20.887c-4.849,0-8.781,3.932-8.781,8.781v31    c0,4.849,3.932,8.781,8.781,8.781h494.438c4.849,0,8.781-3.931,8.781-8.781v-31.034c0-2.399-0.981-4.693-2.716-6.349    s-4.07-2.532-6.467-2.422c-0.328,0.015-0.657,0.026-0.988,0.026c-11.516,0-20.886-9.369-20.886-20.886    c0-11.517,9.369-20.886,20.886-20.886c0.331,0,0.66,0.011,0.988,0.026c2.393,0.112,4.732-0.766,6.467-2.422    s2.716-3.951,2.716-6.349v-32.342c0-2.399-0.981-4.693-2.716-6.349c-1.735-1.658-4.08-2.537-6.467-2.422    c-0.328,0.015-0.657,0.026-0.988,0.026c-11.516,0-20.886-9.369-20.886-20.886c0-11.517,9.369-20.886,20.886-20.886    c0.331,0,0.66,0.012,0.988,0.026c2.384,0.112,4.732-0.766,6.467-2.422c1.734-1.657,2.716-3.951,2.716-6.349v-32.343    c0-2.399-0.981-4.693-2.716-6.349c-1.734-1.658-4.07-2.527-6.467-2.422c-0.328,0.015-0.657,0.026-0.988,0.026    c-11.516,0-20.886-9.369-20.886-20.886S490.312,143.509,501.828,143.509z M494.438,202.129v16.136    c-17.677,3.455-31.056,19.062-31.056,37.734s13.38,34.279,31.056,37.734v16.136c-17.677,3.455-31.056,19.062-31.056,37.734    c0,18.673,13.38,34.279,31.056,37.734v14.15H17.562v-14.449c16.982-3.983,29.667-19.256,29.667-37.436    s-12.684-33.453-29.667-37.435v-16.733C34.544,289.454,47.228,274.18,47.228,256c0-18.18-12.684-33.454-29.667-37.436v-16.733    c16.982-3.983,29.667-19.256,29.667-37.436c0-18.18-12.684-33.454-29.667-37.437V112.51h476.876v14.15    c-17.677,3.455-31.056,19.062-31.056,37.734C463.382,183.067,476.762,198.674,494.438,202.129z" fill="#006DF0"/>
	</g>
</g>
<g>
	<g>
		<path d="M431.617,137.164H80.382c-4.849,0-8.781,3.932-8.781,8.781v220.108c0,4.849,3.932,8.781,8.781,8.781h351.236    c4.849,0,8.781-3.932,8.781-8.781V145.945C440.398,141.096,436.467,137.164,431.617,137.164z M422.836,357.272H89.162V154.726    h333.674V357.272z" fill="#006DF0"/>
	</g>
</g>
<g>
	<g>
		<path d="M400.006,177.263H111.993c-4.849,0-8.781,3.932-8.781,8.781c0,4.849,3.931,8.781,8.781,8.781h288.013    c4.849,0,8.781-3.932,8.781-8.781C408.787,181.195,404.856,177.263,400.006,177.263z" fill="#006DF0"/>
	</g>
</g>
<g>
	<g>
		<path d="M400.006,317.172H111.993c-4.849,0-8.781,3.932-8.781,8.781c0,4.849,3.931,8.781,8.781,8.781h288.013    c4.849,0,8.781-3.932,8.781-8.781C408.787,321.104,404.856,317.172,400.006,317.172z" fill="#006DF0"/>
	</g>
</g>
<g>
	<g>
		<path d="M158.824,226.072H122.53c-4.849,0-8.781,3.932-8.781,8.781c0,4.849,3.932,8.781,8.781,8.781h9.366v33.511    c0,4.849,3.931,8.781,8.781,8.781c4.849,0,8.781-3.932,8.781-8.781v-33.511h9.366c4.849,0,8.781-3.932,8.781-8.781    C167.605,230.004,163.674,226.072,158.824,226.072z" fill="#006DF0"/>
	</g>
</g>
<g>
	<g>
		<path d="M181.654,226.072c-4.849,0-8.781,3.932-8.781,8.781v42.292c0,4.849,3.932,8.781,8.781,8.781    c4.849,0,8.781-3.932,8.781-8.781v-42.292C190.435,230.004,186.504,226.072,181.654,226.072z" fill="#006DF0"/>
	</g>
</g>
<g>
	<g>
		<path d="M288.361,271.139l-13.912-14.839l13.567-15.708c3.169-3.67,2.764-9.215-0.906-12.386    c-3.67-3.171-9.216-2.764-12.386,0.906l-10.916,12.639v-6.899c0.001-4.848-3.93-8.78-8.78-8.78c-4.849,0-8.781,3.932-8.781,8.781    v42.292c0,4.849,3.932,8.781,8.781,8.781c4.849,0,8.781-3.932,8.781-8.781v-6.517l11.742,12.523    c1.729,1.844,4.065,2.775,6.408,2.775c2.152,0,4.311-0.787,6.004-2.376C291.499,280.234,291.678,274.676,288.361,271.139z" fill="#006DF0"/>
	</g>
</g>
<g>
	<g>
		<path d="M389.469,226.072h-36.294c-4.849,0-8.781,3.932-8.781,8.781c0,4.849,3.931,8.781,8.781,8.781h9.366v33.511    c0,4.849,3.932,8.781,8.781,8.781c4.849,0,8.781-3.932,8.781-8.781v-33.511h9.366c4.849,0,8.781-3.932,8.781-8.781    C398.25,230.004,394.318,226.072,389.469,226.072z" fill="#006DF0"/>
	</g>
</g>
<g>
	<g>
		<path d="M228.562,268.366c-6.819,0-12.366-5.547-12.366-12.366c0-6.819,5.547-12.366,12.366-12.366    c4.849,0,8.781-3.932,8.781-8.781c0-4.849-3.932-8.781-8.781-8.781c-16.502,0-29.928,13.425-29.928,29.928    c0,16.502,13.425,29.928,29.928,29.928c4.849,0,8.781-3.932,8.781-8.781C237.343,272.297,233.411,268.366,228.562,268.366z" fill="#006DF0"/>
	</g>
</g>
<g>
	<g>
		<path d="M329.707,268.365h-15.169v-3.585h3.194c4.849,0,8.781-3.932,8.781-8.781c0-4.849-3.932-8.781-8.781-8.781h-3.194v-3.585    h15.169v0.001c4.849,0,8.781-3.932,8.781-8.781c0-4.849-3.932-8.781-8.781-8.781h-23.95c-4.849,0-8.781,3.932-8.781,8.781v42.292    c0,4.849,3.932,8.781,8.781,8.781h23.95c4.849,0,8.781-3.932,8.781-8.781C338.488,272.296,334.557,268.365,329.707,268.365z" fill="#006DF0"/>
	</g>
</g>
<g>
</g>
<g>
</g>
<g>
</g>
<g>
</g>
<g>
</g>
<g>
</g>
<g>
</g>
<g>
</g>
<g>
</g>
<g>
</g>
<g>
</g>
<g>
</g>
<g>
</g>
<g>
</g>
<g>
</g>
</svg>
